# xmcd
#
# Track frame offsets:
#	150
#	12333
#	34747
#	50245
#	58609
#	73319
#	94426
#	112347
#	121977
#	136560
#	150306
#	164699
#	175986
#	186854
#	198185
#	211259
#	225029
#	238809
#	252418
#	266223
#	278588
#	290199
#	304002
#	315644
#	325777
#
# Disc length: 4492
#
# Revision: 2
# Processed by: cddbd v1.5.1PL0 Copyright (c) Steve Scherf et al.
# Submitted via: EasyCDDAExtractor 5.0.6
# Normalized: r1:DSETVAR1
#
DISCID=76118a19
DTITLE=Various Artist - Tracy Chapman, John Lee Hooker - Blues Collection
DYEAR=1900
DGENRE=Blues
TTITLE0=Tracy Chapman - Talkin' Bout A Revolution
TTITLE1=Tracy Chapman - Fast Car
TTITLE2=Tracy Chapman - Across The Lines
TTITLE3=Tracy Chapman - Behind The Wall
TTITLE4=Tracy Chapman - Baby Can I Hold You
TTITLE5=Tracy Chapman - Mountains O' Things
TTITLE6=Tracy Chapman - She's Got Her Ticket
TTITLE7=Tracy Chapman - Why
TTITLE8=Tracy Chapman - For My Lover
TTITLE9=Tracy Chapman - If Not Now...
TTITLE10=Tracy Chapman - For You
TTITLE11=John Lee Hooker - Big Find Woman
TTITLE12=John Lee Hooker - Keep Your Hands To Yourself
TTITLE13=John Lee Hooker - What Do You Say
TTITLE14=John Lee Hooker - Lost A Good Girl
TTITLE15=John Lee Hooker - Ground Hog Blues
TTITLE16=John Lee Hooker - Driftin' From Door To Door
TTITLE17=John Lee Hooker - I Love You Baby
TTITLE18=John Lee Hooker - The Syndicator
TTITLE19=John Lee Hooker - Boogie Woogie All Night Long
TTITLE20=John Lee Hooker - Good Rockin' Mama
TTITLE21=John Lee Hooker - House Rent Boogie
TTITLE22=John Lee Hooker - Boogie Chillum
TTITLE23=John Lee Hooker - Dimples
TTITLE24=John Lee Hooker - Boom Boom
EXTD=
EXTT0=
EXTT1=
EXTT2=
EXTT3=
EXTT4=
EXTT5=
EXTT6=
EXTT7=
EXTT8=
EXTT9=
EXTT10=
EXTT11=
EXTT12=
EXTT13=
EXTT14=
EXTT15=
EXTT16=
EXTT17=
EXTT18=
EXTT19=
EXTT20=
EXTT21=
EXTT22=
EXTT23=
EXTT24=
PLAYORDER=
